<?xml version="1.0" standalone="no"?>
<!DOCTYPE svg PUBLIC "-//W3C//DTD SVG 20010904//EN"
 "http://www.w3.org/TR/2001/REC-SVG-20010904/DTD/svg10.dtd">
<svg version="1.0" xmlns="http://www.w3.org/2000/svg"
 width="50.000000pt" height="50.000000pt" viewBox="0 0 50.000000 50.000000"
 preserveAspectRatio="xMidYMid meet">

<g transform="translate(0.000000,50.000000) scale(0.100000,-0.100000)"
fill="#000000" stroke="none">
<path d="M129 452 c-38 -19 -64 -43 -87 -77 -32 -47 -34 -55 -30 -117 3 -58 8
-72 37 -108 36 -45 35 -50 -19 -97 -21 -19 -23 -24 -10 -33 16 -11 50 -7 122
16 26 8 77 16 115 18 102 3 174 48 218 135 26 52 17 139 -21 193 -67 96 -214
128 -325 70z m141 -97 c0 -18 -5 -25 -20 -25 -15 0 -20 7 -20 25 0 18 5 25 20
25 15 0 20 -7 20 -25z m0 -130 c0 -68 -2 -75 -20 -75 -18 0 -20 7 -20 75 0 68
2 75 20 75 18 0 20 -7 20 -75z"/>
</g>
</svg>
