<?xml version="1.0" standalone="no"?>
<!DOCTYPE svg PUBLIC "-//W3C//DTD SVG 20010904//EN"
 "http://www.w3.org/TR/2001/REC-SVG-20010904/DTD/svg10.dtd">
<svg version="1.0" xmlns="http://www.w3.org/2000/svg"
 width="60.000000pt" height="60.000000pt" viewBox="0 0 60.000000 60.000000"
 preserveAspectRatio="xMidYMid meet">

<g transform="translate(0.000000,60.000000) scale(0.100000,-0.100000)"
fill="#000000" stroke="none">
<path d="M34 549 c-8 -14 5 -27 35 -31 21 -3 28 -17 67 -153 25 -82 51 -156
59 -165 21 -21 238 -27 275 -8 20 11 30 32 54 115 16 56 26 109 23 117 -6 14
-34 16 -205 16 l-200 0 -11 44 c-11 45 -41 76 -73 76 -9 0 -20 -5 -24 -11z"/>
<path d="M214 116 c-10 -26 4 -48 28 -44 33 4 33 52 0 56 -13 2 -25 -3 -28
-12z"/>
<path d="M414 116 c-10 -26 4 -48 28 -44 33 4 33 52 0 56 -13 2 -25 -3 -28
-12z"/>
</g>
</svg>
