<?xml version="1.0" standalone="no"?>
<!DOCTYPE svg PUBLIC "-//W3C//DTD SVG 20010904//EN"
 "http://www.w3.org/TR/2001/REC-SVG-20010904/DTD/svg10.dtd">
<svg version="1.0" xmlns="http://www.w3.org/2000/svg"
 width="48.000000pt" height="48.000000pt" viewBox="0 0 48.000000 48.000000"
 preserveAspectRatio="xMidYMid meet">

<g transform="translate(0.000000,48.000000) scale(0.100000,-0.100000)"
fill="#000000" stroke="none">
<path d="M127 409 c-18 -37 -17 -69 0 -69 13 1 45 79 39 95 -9 24 -20 17 -39
-26z"/>
<path d="M227 409 c-18 -37 -17 -69 0 -69 13 1 45 79 39 95 -9 24 -20 17 -39
-26z"/>
<path d="M327 409 c-18 -37 -17 -69 0 -69 13 1 45 79 39 95 -9 24 -20 17 -39
-26z"/>
<path d="M70 290 c0 -57 24 -123 56 -156 l35 -34 -71 0 c-56 0 -70 -3 -70 -15
0 -27 48 -35 210 -35 162 0 210 8 210 35 0 12 -14 15 -70 15 l-71 0 35 34 c24
24 37 50 45 86 21 97 33 90 -149 90 -152 0 -160 -1 -160 -20z"/>
<path d="M420 231 c0 -16 -5 -42 -10 -56 -9 -24 -8 -26 12 -19 13 3 29 11 36
16 15 13 16 60 0 76 -21 21 -38 13 -38 -17z"/>
</g>
</svg>
