<?xml version="1.0" standalone="no"?>
<!DOCTYPE svg PUBLIC "-//W3C//DTD SVG 20010904//EN"
 "http://www.w3.org/TR/2001/REC-SVG-20010904/DTD/svg10.dtd">
<svg version="1.0" xmlns="http://www.w3.org/2000/svg"
 width="64.000000pt" height="64.000000pt" viewBox="0 0 64.000000 64.000000"
 preserveAspectRatio="xMidYMid meet">

<g transform="translate(0.000000,64.000000) scale(0.100000,-0.100000)"
fill="#000000" stroke="none">
<path d="M442 623 c-7 -2 -24 -27 -37 -54 -20 -39 -22 -49 -10 -49 8 0 24 18
35 40 17 34 25 40 51 40 20 0 29 4 27 13 -5 13 -44 19 -66 10z"/>
<path d="M108 478 c-29 -45 -41 -100 -36 -174 6 -89 40 -152 106 -199 37 -25
54 -30 119 -34 42 -2 94 2 115 9 56 16 121 85 143 149 22 69 18 171 -11 226
l-21 40 -141 3 -142 3 0 -76 c0 -94 -21 -104 -39 -17 -20 92 -20 92 -51 92
-18 0 -33 -8 -42 -22z"/>
</g>
</svg>
