<?xml version="1.0" standalone="no"?>
<!DOCTYPE svg PUBLIC "-//W3C//DTD SVG 20010904//EN"
 "http://www.w3.org/TR/2001/REC-SVG-20010904/DTD/svg10.dtd">
<svg version="1.0" xmlns="http://www.w3.org/2000/svg"
 width="64.000000pt" height="64.000000pt" viewBox="0 0 64.000000 64.000000"
 preserveAspectRatio="xMidYMid meet">

<g transform="translate(0.000000,64.000000) scale(0.100000,-0.100000)"
fill="#000000" stroke="none">
<path d="M372 494 c-13 -9 -27 -27 -33 -40 -13 -35 12 -91 46 -104 37 -14 40
-13 74 16 77 65 -5 185 -87 128z m68 -39 c7 -9 10 -25 6 -41 -5 -20 -12 -25
-34 -22 -19 2 -28 9 -30 26 -6 43 33 68 58 37z"/>
<path d="M171 444 c-28 -36 -27 -79 4 -109 31 -32 75 -33 102 -2 29 31 34 52
22 87 -20 56 -92 70 -128 24z"/>
<path d="M377 308 c-21 -4 -48 -15 -60 -23 -15 -10 -36 -13 -72 -9 -90 10
-185 -62 -145 -110 18 -23 248 -23 256 -1 5 11 24 15 81 15 85 0 113 11 113
44 0 28 -49 73 -88 82 -15 3 -31 7 -37 8 -5 2 -27 -1 -48 -6z m104 -58 l24
-19 -82 -1 c-81 0 -101 9 -65 29 30 18 98 13 123 -9z"/>
</g>
</svg>
