<?xml version="1.0" standalone="no"?>
<!DOCTYPE svg PUBLIC "-//W3C//DTD SVG 20010904//EN"
 "http://www.w3.org/TR/2001/REC-SVG-20010904/DTD/svg10.dtd">
<svg version="1.0" xmlns="http://www.w3.org/2000/svg" width="184.000000pt" height="184.000000pt" viewBox="0 0 184.000000 184.000000" preserveAspectRatio="xMidYMid meet" fill="#B17457">
<g transform="translate(0.000000,184.000000) scale(0.100000,-0.100000)" fill="#B17457" stroke="none">
<path d="M563 1748 c-26 -34 -24 -38 16 -38 37 0 41 2 41 25 0 20 -5 25 -24
25 -13 0 -28 -6 -33 -12z"/>
<path d="M347 1713 c-38 -24 -54 -80 -38 -132 11 -39 50 -89 83 -107 15 -8 16
-15 8 -44 -13 -45 -2 -131 21 -169 25 -42 104 -97 167 -117 47 -14 61 -15 110
-3 63 14 129 16 212 5 49 -7 59 -5 95 19 38 25 64 73 65 117 0 7 9 24 20 38
37 48 27 66 -109 195 -107 103 -134 123 -181 138 -72 23 -194 32 -245 18 -37
-10 -41 -9 -71 20 -40 38 -97 48 -137 22z m505 -226 c42 -47 51 -75 19 -57
-11 5 -41 10 -68 10 -53 1 -68 9 -101 57 l-22 32 32 4 c68 9 101 -2 140 -46z"/>
<path d="M1280 1531 c0 -16 12 -55 27 -87 21 -47 27 -74 27 -134 0 -43 -5 -85
-13 -98 -12 -22 -11 -23 7 -13 31 17 56 92 48 149 -6 43 -78 212 -91 212 -3 0
-5 -13 -5 -29z"/>
<path d="M1191 1537 c-10 -13 -8 -26 14 -79 49 -118 49 -117 36 -181 -7 -32
-10 -61 -8 -64 3 -2 15 13 28 33 34 55 30 113 -11 194 -18 36 -36 76 -39 89
-6 20 -8 21 -20 8z"/>
<path d="M215 1473 c-60 -64 -136 -218 -177 -360 -18 -63 -23 -103 -23 -203 1
-142 12 -198 64 -320 127 -296 365 -460 724 -502 271 -31 615 70 809 236 91
79 170 180 199 255 24 66 22 95 -9 99 -18 3 -25 -4 -38 -35 -57 -140 -112
-219 -189 -271 -39 -26 -189 -88 -246 -102 -166 -40 -321 -49 -459 -26 -121
20 -282 89 -380 163 -273 207 -404 506 -346 793 23 111 60 215 91 256 14 18
25 35 25 38 0 14 -21 4 -45 -21z"/>
<path d="M254 1375 c-8 -19 13 -45 36 -45 20 0 32 23 24 45 -8 20 -53 19 -60
0z"/>
<path d="M253 1224 c-15 -24 -15 -29 -2 -53 11 -20 22 -26 49 -26 28 0 37 5
48 28 30 63 -56 110 -95 51z"/>
<path d="M435 1100 c-9 -15 3 -47 20 -54 34 -13 66 24 44 50 -13 16 -55 19
-64 4z"/>
<path d="M177 1078 c-6 -20 4 -46 20 -52 22 -9 33 2 33 35 0 24 -4 29 -24 29
-13 0 -26 -6 -29 -12z"/>
<path d="M1265 1059 c-33 -5 -96 -13 -140 -19 -198 -25 -308 -42 -417 -62
l-118 -22 0 -35 c1 -144 115 -323 246 -385 175 -83 332 -53 462 90 97 106 141
219 142 367 l0 77 -57 -1 c-32 -1 -85 -5 -118 -10z m107 -120 c-6 -121 -45
-213 -122 -290 -48 -48 -67 -55 -125 -49 -11 1 -27 8 -36 16 -8 8 -20 14 -26
14 -6 0 -13 4 -15 8 -1 4 -23 20 -48 34 -47 28 -141 115 -200 186 -28 34 -41
42 -69 42 -51 0 -29 13 37 21 31 4 93 13 137 19 44 6 114 15 155 20 76 10 181
26 255 40 22 4 45 6 50 5 6 -1 9 -28 7 -66z"/>
<path d="M1483 1043 c-4 -11 1 -22 17 -32 46 -32 80 -70 80 -90 0 -48 -30 -97
-80 -129 -28 -18 -50 -39 -50 -47 0 -7 -3 -21 -6 -30 -13 -33 77 6 126 55 45
44 70 100 70 156 0 52 -3 59 -39 95 -31 31 -46 39 -75 39 -25 0 -39 -5 -43
-17z"/>
<path d="M321 1034 c-27 -19 -28 -65 -1 -89 17 -15 24 -16 45 -7 32 15 41 37
29 70 -12 33 -45 45 -73 26z"/>
<path d="M423 863 c-7 -3 -13 -16 -13 -30 0 -18 5 -24 17 -21 19 4 30 35 16
48 -4 4 -14 5 -20 3z"/>
<path d="M265 820 c-9 -28 11 -50 45 -50 32 0 45 22 30 51 -15 27 -66 26 -75
-1z"/>
<path d="M1533 529 c-35 -10 -211 -43 -343 -64 -89 -14 -181 -26 -340 -45
-142 -17 -160 -20 -160 -30 0 -35 145 -45 305 -22 450 66 514 81 573 135 39
36 28 44 -35 26z"/>
</g>
</svg>
